<?xml version="1.0" encoding="UTF-8" standalone="no"?>
<!-- Created with Inkscape (http://www.inkscape.org/) -->

<svg
   width="5000mm"
   height="5000mm"
   viewBox="0 0 5000 5000"
   version="1.1"
   id="svg1"
   inkscape:export-filename="charmos.png"
   inkscape:export-xdpi="31.084995"
   inkscape:export-ydpi="31.084995"
   inkscape:version="1.4.2 (ebf0e940, 2025-05-08)"
   sodipodi:docname="charmos_logo_inkscape.svg"
   xmlns:inkscape="http://www.inkscape.org/namespaces/inkscape"
   xmlns:sodipodi="http://sodipodi.sourceforge.net/DTD/sodipodi-0.dtd"
   xmlns="http://www.w3.org/2000/svg"
   xmlns:svg="http://www.w3.org/2000/svg"
   xmlns:rdf="http://www.w3.org/1999/02/22-rdf-syntax-ns#">
  <sodipodi:namedview
     id="namedview1"
     pagecolor="#ffffff"
     bordercolor="#000000"
     borderopacity="0.25"
     inkscape:showpageshadow="false"
     inkscape:pageopacity="0.0"
     inkscape:pagecheckerboard="0"
     inkscape:deskcolor="#d1d1d1"
     inkscape:document-units="mm"
     inkscape:lockguides="false"
     showgrid="true"
     inkscape:zoom="0.05058745"
     inkscape:cx="8401.2933"
     inkscape:cy="8944.9064"
     inkscape:window-width="1712"
     inkscape:window-height="1040"
     inkscape:window-x="0"
     inkscape:window-y="39"
     inkscape:window-maximized="1"
     inkscape:current-layer="svg1"
     labelstyle="default"
     borderlayer="false"
     showborder="true">
    <inkscape:grid
       id="grid11"
       units="mm"
       originx="171.61658"
       originy="510.05377"
       spacingx="0.23255813"
       spacingy="0.23255822"
       empcolor="#0099e5"
       empopacity="0.30196078"
       color="#0099e5"
       opacity="0.14901961"
       empspacing="5"
       enabled="true"
       visible="true"
       snapvisiblegridlinesonly="true"
       dotted="false" />
  </sodipodi:namedview>
  <defs
     id="defs1">
    <inkscape:path-effect
       effect="powerstroke"
       message=""
       id="path-effect814"
       is_visible="true"
       lpeversion="1.3"
       scale_width="64.335664"
       interpolator_type="CentripetalCatmullRom"
       interpolator_beta="0.2"
       start_linecap_type="zerowidth"
       end_linecap_type="zerowidth"
       offset_points="0.2,0.061406001 | 0.5,0.061406001 | 0.8,0.061406001"
       linejoin_type="round"
       miter_limit="4"
       not_jump="false"
       sort_points="true" />
    <inkscape:path-effect
       effect="powerstroke"
       message=""
       id="path-effect813"
       is_visible="true"
       lpeversion="1.3"
       scale_width="62.587413"
       interpolator_type="CentripetalCatmullRom"
       interpolator_beta="0.2"
       start_linecap_type="zerowidth"
       end_linecap_type="zerowidth"
       offset_points="0.2,0.061406001 | 0.5,0.061406001 | 0.8,0.061406001"
       linejoin_type="round"
       miter_limit="4"
       not_jump="false"
       sort_points="true" />
  </defs>
  <path
     id="path810"
     style="fill:#008000;stroke-width:0.123312"
     d="m 2053.2383,1772.7218 a 269.76188,210.39988 0 0 0 269.7616,210.4 269.76188,210.39988 0 0 0 269.7621,-210.4 269.76188,210.39988 0 0 0 -269.7621,-210.4 269.76188,210.39988 0 0 0 -269.7616,210.4 z m 354.578,0 a 269.76188,210.39988 0 0 0 269.762,210.4 269.76188,210.39988 0 0 0 269.7616,-210.4 269.76188,210.39988 0 0 0 -269.7616,-210.4 269.76188,210.39988 0 0 0 -269.762,210.4 z m 90.9308,682.6308 c 75.9348,0 248.1116,-255.0992 286.0788,-315.6 37.9676,-60.5008 192.01,-325.232 154.0428,-385.7332 -37.9676,-60.5008 -364.1868,-70.1332 -440.1216,-70.1332 -75.9344,0 -402.154,9.6324 -440.1212,70.1332 -37.9672,60.5008 116.0752,325.2324 154.0424,385.7332 37.9672,60.5008 210.1444,315.6 286.0788,315.6 z m -445.5088,771.9268 a 269.76188,210.39988 0 0 1 269.7616,-210.4 269.76188,210.39988 0 0 1 269.7621,210.4 269.76188,210.39988 0 0 1 -269.7621,210.4 269.76188,210.39988 0 0 1 -269.7616,-210.4 z m 354.578,0 a 269.76188,210.39988 0 0 1 269.762,-210.3992 269.76188,210.39988 0 0 1 269.7616,210.4 269.76188,210.39988 0 0 1 -269.7616,210.4 269.76188,210.39988 0 0 1 -269.762,-210.4 z m 90.9308,-682.6312 c 75.9348,0 248.1116,255.0988 286.0788,315.5996 37.9676,60.5012 192.01,325.2324 154.0428,385.7332 -37.9676,60.5012 -364.1868,70.1336 -440.1216,70.1336 -75.9344,0 -402.154,-9.6324 -440.1212,-70.1336 -37.9672,-60.5008 116.0752,-325.232 154.0424,-385.7332 37.9672,-60.5008 210.1444,-315.5996 286.0788,-315.5996 z m -726.0244,402.108 a 210.39988,269.76188 0 0 0 210.4,-269.762 210.39988,269.76188 0 0 0 -210.4,-269.762 210.39988,269.76188 0 0 0 -210.4,269.762 210.39988,269.76188 0 0 0 210.4,269.762 z m 0,-354.5784 a 210.39988,269.76188 0 0 0 210.4,-269.7616 210.39988,269.76188 0 0 0 -210.3996,-269.762 210.39988,269.76188 0 0 0 -210.4,269.762 210.39988,269.76188 0 0 0 210.4,269.7616 z m 682.6304,-90.9308 c 0,-75.9348 -255.0992,-248.1116 -315.5996,-286.0788 -60.5012,-37.9672 -325.2324,-192.01 -385.7332,-154.0424 -60.5012,37.9672 -70.1336,364.1864 -70.1336,440.1212 0,75.9348 9.6325,402.154 70.1336,440.1216 60.5008,37.9672 325.232,-116.0756 385.7332,-154.0428 60.5008,-37.9672 315.5996,-210.144 315.5996,-286.0788 z m 771.9264,445.5092 a 210.39988,269.76188 0 0 1 -210.4,-269.762 210.39988,269.76188 0 0 1 210.4,-269.762 210.39988,269.76188 0 0 1 210.3997,269.762 210.39988,269.76188 0 0 1 -210.3997,269.762 z m 0,-354.5784 a 210.39988,269.76188 0 0 1 -210.4004,-269.7616 210.39988,269.76188 0 0 1 210.4,-269.762 210.39988,269.76188 0 0 1 210.4,269.762 210.39988,269.76188 0 0 1 -210.4,269.7616 z m -682.6304,-90.9308 c 0,-75.9348 255.0988,-248.1116 315.5996,-286.0788 60.5012,-37.9672 325.2324,-192.01 385.7332,-154.0424 60.5013,37.9672 70.1336,364.1864 70.1336,440.1212 0,75.9348 -9.6324,402.154 -70.1336,440.1216 -60.5008,37.9672 -325.232,-116.0756 -385.7332,-154.0428 -60.5008,-37.9672 -315.5996,-210.144 -315.5996,-286.0788 z" />
  <metadata
     id="metadata11">
    <rdf:RDF />
  </metadata>
  <path
     id="path822"
     style="fill:#ffffff;stroke-width:0.427476"
     d="m 2499.9975,1886.0498 a 613.95376,613.95368 0 0 0 -613.954,613.9532 613.95376,613.95368 0 0 0 613.954,613.954 613.95376,613.95368 0 0 0 361.8557,-117.9696 613.95376,613.95368 0 0 0 0,-8e-4 c -31.1652,-59.848 -62.5432,-112.6512 -77.0273,-135.732 -11.8652,-18.9064 -36.8364,-56.8172 -67.8812,-100.008 a 338.81063,338.8106 0 0 1 -216.9472,78.5676 338.81063,338.8106 0 0 1 -338.8112,-338.8112 338.81063,338.8106 0 0 1 338.8112,-338.8104 338.81063,338.8106 0 0 1 216.9472,78.5676 c 31.0448,-43.1908 56.016,-81.1012 67.8812,-100.0076 14.4841,-23.0808 45.8616,-75.8844 77.0273,-135.7328 a 613.95376,613.95368 0 0 0 -361.8557,-117.97 z m 495.9828,252.098 c -59.848,31.1652 -112.6512,62.5428 -135.732,77.0268 -18.9064,11.8648 -56.8172,36.8368 -100.0076,67.8816 43.1908,-31.0452 81.102,-56.0168 100.0088,-67.8816 23.0804,-14.484 75.8832,-45.8616 135.7308,-77.0268 z m -135.7308,649.1848 c 22.91,14.3776 75.1048,45.3988 134.4061,76.336 a 613.95376,613.95368 0 0 0 0,-4e-4 c -59.3012,-30.9372 -111.496,-61.9584 -134.4061,-76.3356 z" />
  <path
     id="path22"
     style="opacity:1;fill-opacity:0;stroke:#808080;stroke-width:117.926;stroke-opacity:1"
     d="M 3569.3148,2549.7651 A 1069.3148,2184.3594 0 0 1 2500,4734.1245 1069.3148,2184.3594 0 0 1 1430.6852,2549.7651 1069.3148,2184.3594 0 0 1 2500,365.40577 1069.3148,2184.3594 0 0 1 3569.3148,2549.7651 Z M 2599.5303,365.40577 A 99.530289,99.530289 0 0 1 2500,464.93606 99.530289,99.530289 0 0 1 2400.4697,365.40577 99.530289,99.530289 0 0 1 2500,265.87548 a 99.530289,99.530289 0 0 1 99.5303,99.53029 z" />
  <path
     id="path22-7"
     style="fill-opacity:0;stroke:#808080;stroke-width:117.926;stroke-opacity:1"
     d="M 1922.2448,3401.1712 A 2184.3594,1069.3148 30 0 1 565.19143,1382.9378 2184.3594,1069.3148 30 0 1 2991.5596,1549.0637 2184.3594,1069.3148 30 0 1 4348.6128,3567.2971 2184.3594,1069.3148 30 0 1 1922.2448,3401.1712 Z m 2376.6029,252.3217 a 99.530289,99.530289 14.785274 0 1 -36.4307,-135.961 99.530289,99.530289 14.785274 0 1 135.961,-36.4306 99.530289,99.530289 14.785274 0 1 36.4306,135.9609 99.530289,99.530289 14.785274 0 1 -135.9609,36.4307 z" />
  <path
     id="path22-7-1"
     style="fill-opacity:0;stroke:#808080;stroke-width:117.926;stroke-opacity:1"
     d="M 1971.5779,1563.1464 A 1069.3148,2184.3594 60 0 1 4397.9459,1397.0204 1069.3148,2184.3594 60 0 1 3040.8926,3415.2539 1069.3148,2184.3594 60 0 1 614.52461,3581.3798 1069.3148,2184.3594 60 0 1 1971.5779,1563.1464 Z M 564.75941,3495.184 a 99.530289,99.530289 14.785274 0 1 135.96103,36.4306 99.530289,99.530289 14.785274 0 1 -36.43068,135.961 99.530289,99.530289 14.785274 0 1 -135.96089,-36.4306 99.530289,99.530289 14.785274 0 1 36.43054,-135.961 z" />
</svg>
